HIERARCHY
ROOT Hips
{
  OFFSET 5.84602e-005 68.8428 3.50346
  CHANNELS 6 Xposition Yposition Zposition Zrotation Xrotation Yrotation
  JOINT Spine
  {
    OFFSET 0 8.597 -4.6522
    CHANNELS 3 Zrotation Xrotation Yrotation
    JOINT Spine1
    {
      OFFSET 0 7.8454 0.4098
      CHANNELS 3 Zrotation Xrotation Yrotation
      JOINT Spine2
      {
        OFFSET 0 9.7078 -2.1609
        CHANNELS 3 Zrotation Xrotation Yrotation
        JOINT Neck
        {
          OFFSET 0 21.8761 -0.4549
          CHANNELS 3 Zrotation Xrotation Yrotation
          JOINT Head
          {
            OFFSET 0 12.3537 3.3602
            CHANNELS 3 Zrotation Xrotation Yrotation
            End Site
            {
              OFFSET 0.0001 18.9506 0.5657
            }
          }
        }
        JOINT LeftShoulder
        {
          OFFSET 2.2086 21.1115 7.2329
          CHANNELS 3 Zrotation Xrotation Yrotation
          JOINT LeftArm
          {
            OFFSET 13.1193 3.0282 -4.8998
            CHANNELS 3 Zrotation Xrotation Yrotation
            JOINT LeftForeArm
            {
              OFFSET 27.4081 -0.0973053 -0.2375
              CHANNELS 3 Zrotation Xrotation Yrotation
              JOINT LeftHand
              {
                OFFSET 22.8641 0.0662994 -0.1369
                CHANNELS 3 Zrotation Xrotation Yrotation
                JOINT LeftHandIndex1
                {
                  OFFSET 8.8614 0.775009 2.4612
                  CHANNELS 3 Zrotation Xrotation Yrotation
                  JOINT LeftHandIndex2
                  {
                    OFFSET 3.3146 -0.808304 0.5841
                    CHANNELS 3 Zrotation Xrotation Yrotation
                    JOINT LeftHandIndex3
                    {
                      OFFSET 2.2628 -0.552002 0.3989
                      CHANNELS 3 Zrotation Xrotation Yrotation
                      End Site
                      {
                        OFFSET 1.6102 -0.4807 0.2612
                      }
                    }
                  }
                }
                JOINT LeftHandMiddle1
                {
                  OFFSET 8.9937 0.895004 0.2143
                  CHANNELS 3 Zrotation Xrotation Yrotation
                  JOINT LeftHandMiddle2
                  {
                    OFFSET 4.0984 0.0113983 -0.0242
                    CHANNELS 3 Zrotation Xrotation Yrotation
                    JOINT LeftHandMiddle3
                    {
                      OFFSET 2.2716 0.00689697 -0.0138001
                      CHANNELS 3 Zrotation Xrotation Yrotation
                      End Site
                      {
                        OFFSET 2.0404 -0.1441 0.0027
                      }
                    }
                  }
                }
                JOINT LeftHandRing1
                {
                  OFFSET 8.5234 0.597198 -2.0164
                  CHANNELS 3 Zrotation Xrotation Yrotation
                  JOINT LeftHandRing2
                  {
                    OFFSET 3.7188 -0.188293 -0.2328
                    CHANNELS 3 Zrotation Xrotation Yrotation
                    JOINT LeftHandRing3
                    {
                      OFFSET 2.1191 -0.106598 -0.1332
                      CHANNELS 3 Zrotation Xrotation Yrotation
                      End Site
                      {
                        OFFSET 1.8737 -0.2304 -0.0886
                      }
                    }
                  }
                }
                JOINT LeftHandPinky1
                {
                  OFFSET 7.9094 -0.601089 -3.4825
                  CHANNELS 3 Zrotation Xrotation Yrotation
                  JOINT LeftHandPinky2
                  {
                    OFFSET 2.2874 -0.477005 -0.6314
                    CHANNELS 3 Zrotation Xrotation Yrotation
                    JOINT LeftHandPinky3
                    {
                      OFFSET 1.6774 -0.349396 -0.4633
                      CHANNELS 3 Zrotation Xrotation Yrotation
                      End Site
                      {
                        OFFSET 1.4888 -0.4091 -0.3416
                      }
                    }
                  }
                }
                JOINT LeftHandThumb1
                {
                  OFFSET 1.833 -1.3875 1.3896
                  CHANNELS 3 Zrotation Xrotation Yrotation
                  JOINT LeftHandThumb2
                  {
                    OFFSET 3.4129 -1.121 2.5732
                    CHANNELS 3 Zrotation Xrotation Yrotation
                    JOINT LeftHandThumb3
                    {
                      OFFSET 2.2474 -0.804199 1.6192
                      CHANNELS 3 Zrotation Xrotation Yrotation
                      End Site
                      {
                        OFFSET 1.6527 -0.5689 1.1317
                      }
                    }
                  }
                }
              }
            }
          }
        }
        JOINT RightShoulder
        {
          OFFSET -2.2086 21.1115 7.2329
          CHANNELS 3 Zrotation Xrotation Yrotation
          JOINT RightArm
          {
            OFFSET -13.1216 3.0287 -4.9007
            CHANNELS 3 Zrotation Xrotation Yrotation
            JOINT RightForeArm
            {
              OFFSET -27.4081 -0.0973053 -0.2375
              CHANNELS 3 Zrotation Xrotation Yrotation
              JOINT RightHand
              {
                OFFSET -22.8641 0.0664063 -0.1369
                CHANNELS 3 Zrotation Xrotation Yrotation
                JOINT RightHandIndex1
                {
                  OFFSET -8.8614 0.774994 2.4612
                  CHANNELS 3 Zrotation Xrotation Yrotation
                  JOINT RightHandIndex2
                  {
                    OFFSET -3.3146 -0.808304 0.5841
                    CHANNELS 3 Zrotation Xrotation Yrotation
                    JOINT RightHandIndex3
                    {
                      OFFSET -2.2628 -0.552002 0.3989
                      CHANNELS 3 Zrotation Xrotation Yrotation
                      End Site
                      {
                        OFFSET -1.6102 -0.4807 0.2612
                      }
                    }
                  }
                }
                JOINT RightHandMiddle1
                {
                  OFFSET -8.9937 0.894989 0.2143
                  CHANNELS 3 Zrotation Xrotation Yrotation
                  JOINT RightHandMiddle2
                  {
                    OFFSET -4.0984 0.0113983 -0.0242
                    CHANNELS 3 Zrotation Xrotation Yrotation
                    JOINT RightHandMiddle3
                    {
                      OFFSET -2.2716 0.00691223 -0.0138001
                      CHANNELS 3 Zrotation Xrotation Yrotation
                      End Site
                      {
                        OFFSET -2.0404 -0.1441 0.0027
                      }
                    }
                  }
                }
                JOINT RightHandRing1
                {
                  OFFSET -8.5234 0.597198 -2.0164
                  CHANNELS 3 Zrotation Xrotation Yrotation
                  JOINT RightHandRing2
                  {
                    OFFSET -3.7188 -0.188309 -0.2328
                    CHANNELS 3 Zrotation Xrotation Yrotation
                    JOINT RightHandRing3
                    {
                      OFFSET -2.1191 -0.106598 -0.1332
                      CHANNELS 3 Zrotation Xrotation Yrotation
                      End Site
                      {
                        OFFSET -1.8737 -0.2304 -0.0886
                      }
                    }
                  }
                }
                JOINT RightHandPinky1
                {
                  OFFSET -7.9094 -0.601105 -3.4825
                  CHANNELS 3 Zrotation Xrotation Yrotation
                  JOINT RightHandPinky2
                  {
                    OFFSET -2.2874 -0.477005 -0.6314
                    CHANNELS 3 Zrotation Xrotation Yrotation
                    JOINT RightHandPinky3
                    {
                      OFFSET -1.6774 -0.349396 -0.4633
                      CHANNELS 3 Zrotation Xrotation Yrotation
                      End Site
                      {
                        OFFSET -1.4888 -0.4091 -0.3416
                      }
                    }
                  }
                }
                JOINT RightHandThumb1
                {
                  OFFSET -1.833 -1.38751 1.3896
                  CHANNELS 3 Zrotation Xrotation Yrotation
                  JOINT RightHandThumb2
                  {
                    OFFSET -3.41299 -1.12099 2.5732
                    CHANNELS 3 Zrotation Xrotation Yrotation
                    JOINT RightHandThumb3
                    {
                      OFFSET -2.24741 -0.804108 1.6192
                      CHANNELS 3 Zrotation Xrotation Yrotation
                      End Site
                      {
                        OFFSET -1.6527 -0.5689 1.1317
                      }
                    }
                  }
                }
              }
            }
          }
        }
      }
    }
  }
  JOINT RightUpLeg
  {
    OFFSET -9.1966 3.8861 -0.7581
    CHANNELS 3 Zrotation Xrotation Yrotation
    JOINT RightLeg
    {
      OFFSET -0.7359 -41.0265 0
      CHANNELS 3 Zrotation Xrotation Yrotation
      JOINT RightFoot
      {
        OFFSET 0 -40.2855 0
        CHANNELS 3 Zrotation Xrotation Yrotation
        JOINT RightToeBase
        {
          OFFSET 0 -5.6122 11.7359
          CHANNELS 3 Zrotation Xrotation Yrotation
          End Site
          {
            OFFSET 0 0 7.8731
          }
        }
      }
    }
  }
  JOINT LeftUpLeg
  {
    OFFSET 9.1965 3.8864 -0.7581
    CHANNELS 3 Zrotation Xrotation Yrotation
    JOINT LeftLeg
    {
      OFFSET 0.7359 -41.0268 0
      CHANNELS 3 Zrotation Xrotation Yrotation
      JOINT LeftFoot
      {
        OFFSET 0 -40.2855 0
        CHANNELS 3 Zrotation Xrotation Yrotation
        JOINT LeftToeBase
        {
          OFFSET 0 -5.6122 11.7359
          CHANNELS 3 Zrotation Xrotation Yrotation
          End Site
          {
            OFFSET 0 0 7.8731
          }
        }
      }
    }
  }
}
MOTION
Frames:	4
Frame Time:	0.0333333
0.0008587 2.29399 5.96196 -0 -89.0022 -0 -0.0925759 2.20045 -0.494392 -0.166315 4.40162 -0.986316 -0.166315 4.40159 -0.986316 5.46775 -7.22611 1.34264 5.9953 -4.12414 6.28664 3.58587 -9.79817 -1.93564 -7.21578 -19.9136 -34.1505 -10.193 -35.206 -29.4865 -49.1647 -28.2709 -27.6687 -3.4809e-006 -7.64137e-007 2.60237e-007 -8.83028e-007 -1.35831e-007 6.02169e-008 -3.44408e-008 1.34758e-007 1.61883e-007 -3.4809e-006 -7.64137e-007 2.60237e-007 -0.0145822 -8.63068e-005 1.52779e-007 -3.479e-006 -7.64158e-007 2.60142e-007 -3.4809e-006 -7.64137e-007 2.60237e-007 -0.0187529 -0.00117405 5.73418e-005 -3.44395e-008 1.34732e-007 1.61906e-007 -3.4809e-006 -7.64137e-007 2.60237e-007 -0.0122185 -0.00323348 0.000674055 -3.44357e-008 1.34741e-007 1.61899e-007 -3.4809e-006 -7.64137e-007 2.60237e-007 -8.83028e-007 -1.35831e-007 6.02169e-008 -3.44408e-008 1.34758e-007 1.61883e-007 -3.41694 -9.75859 4.24726 7.33313 -19.6234 37.1806 12.3029 -30.8599 33.6101 24.7992 -19.9222 17.9531 4.91222e-007 1.18776e-006 -1.11385e-006 -2.37942e-007 -2.50074e-007 -4.60312e-007 4.91222e-007 1.18776e-006 -1.11385e-006 4.91222e-007 1.18776e-006 -1.11385e-006 0.0149901 -9.00019e-005 1.33424e-006 4.91201e-007 1.18761e-006 -1.114e-006 4.91222e-007 1.18776e-006 -1.11385e-006 0.018991 -0.00118902 -6.28702e-005 4.91185e-007 1.18757e-006 -1.11405e-006 4.91222e-007 1.18776e-006 -1.11385e-006 0.0122999 -0.00325556 -0.000675087 7.28019e-007 1.43806e-006 -6.53649e-007 4.91222e-007 1.18776e-006 -1.11385e-006 -2.37942e-007 -2.50074e-007 -4.60312e-007 4.91222e-007 1.18776e-006 -1.11385e-006 -17.1615 -41.675 -21.3919 -172.303 63.1067 170.54 -12.006 4.25182 0.702241 1.05455e-007 1.71163e-006 8.24295e-007 20.3296 -51.1711 25.6814 173.057 47.6469 -170.304 12.0302 4.08327 0.830166 -5.31575e-008 3.90474e-009 2.53096e-009 
0.00104666 2.29351 5.99457 -0 -89.0022 -0 -0.100105 2.15638 -0.485389 -0.182105 4.31353 -0.968035 -0.182105 4.31352 -0.968034 5.00687 -6.15353 1.18482 5.5398 -2.09066 5.52802 3.07095 -9.5892 -2.44748 -7.86731 -19.6449 -35.6808 -13.7938 -34.5133 -32.6709 -48.9752 -26.8542 -27.5802 1.66898e-008 -6.36999e-008 -8.39738e-008 3.33796e-008 -1.274e-007 -1.67948e-007 1.66898e-008 -6.36999e-008 -8.39737e-008 1.66898e-008 -6.36999e-008 -8.39738e-008 -0.0146591 -8.99455e-005 -1.08518e-006 1.66899e-008 -6.36891e-008 -8.39819e-008 1.66898e-008 -6.36999e-008 -8.39738e-008 -0.0188119 -0.00118003 5.73648e-005 1.66891e-008 -6.36861e-008 -8.39844e-008 1.66898e-008 -6.36999e-008 -8.39738e-008 -0.0122227 -0.00323381 0.000672073 1.66872e-008 -6.3691e-008 -8.3981e-008 1.66898e-008 -6.36999e-008 -8.39738e-008 3.33796e-008 -1.274e-007 -1.67948e-007 1.66898e-008 -6.36999e-008 -8.39737e-008 -2.91968 -9.53238 4.55213 7.9624 -19.3605 38.4575 15.4411 -30.2615 36.2333 26.6985 -19.1282 18.6562 2.64834e-031 3.18055e-015 -4.77083e-015 7.95139e-016 6.36111e-015 -4.77083e-015 7.95139e-016 9.54166e-015 -4.77083e-015 2.64834e-031 3.18055e-015 -4.77083e-015 0.0149758 -9.06651e-005 9.46498e-007 -7.95139e-016 1.27222e-014 4.77083e-015 2.64834e-031 3.18055e-015 -4.77083e-015 0.0189725 -0.00118985 -6.03717e-005 0 3.18055e-015 -0 2.64834e-031 3.18055e-015 -4.77083e-015 0.0122544 -0.00324245 -0.000675506 -1.76556e-031 -3.18055e-015 -3.18055e-015 2.64834e-031 3.18055e-015 -4.77083e-015 7.95139e-016 6.36111e-015 -4.77083e-015 7.95139e-016 9.54166e-015 -4.77083e-015 -16.5749 -41.8278 -20.7144 -172.301 63.1089 170.539 -11.5064 4.28527 0.414567 -7.9706e-008 1.69519e-006 1.6963e-006 19.6185 -51.3444 24.944 173.056 47.6483 -170.3 11.5231 4.10174 1.063 -9.30231e-008 6.84022e-009 4.47209e-009 
0.0012346 2.29303 6.02719 -0 -89.0022 -0 -0.107559 2.11233 -0.476362 -0.197727 4.22549 -0.949718 -0.197728 4.22548 -0.949718 4.54975 -5.07989 1.03602 5.11299 -0.0592889 4.78867 2.55833 -9.37585 -2.95703 -8.50968 -19.3601 -37.2047 -17.1253 -33.3129 -35.5528 -48.7906 -25.4376 -27.498 -1.61893e-008 5.99191e-008 8.68091e-008 2.38542e-015 -3.18055e-015 -1.59028e-015 -1.29515e-007 4.79353e-007 6.94473e-007 -1.61893e-008 5.99191e-008 8.68091e-008 -0.0146099 -8.86124e-005 2.92642e-007 -1.29515e-007 4.79265e-007 6.94534e-007 -1.61893e-008 5.99191e-008 8.68091e-008 -0.0187796 -0.001178 5.81384e-005 -1.29509e-007 4.79239e-007 6.94553e-007 -1.61893e-008 5.99191e-008 8.68091e-008 -0.0123084 -0.0032594 0.000678134 -1.29493e-007 4.79279e-007 6.94528e-007 -1.61893e-008 5.99191e-008 8.68091e-008 2.38542e-015 -3.18055e-015 -1.59028e-015 -1.29515e-007 4.79353e-007 6.94473e-007 -2.42399 -9.30369 4.85481 8.5841 -19.0845 39.7288 18.5193 -29.5432 38.7958 28.5785 -18.5499 19.5727 -7.95139e-016 6.36111e-015 3.18055e-015 -1.76556e-031 3.18055e-015 3.18055e-015 -1.76556e-031 3.18055e-015 3.18055e-015 -7.95139e-016 6.36111e-015 3.18055e-015 0.0149499 -8.86114e-005 -2.89778e-007 1.59028e-015 0 1.59028e-015 -7.95139e-016 6.36111e-015 3.18055e-015 0.0190202 -0.00119507 -6.00131e-005 -0 0 3.18055e-015 -7.95139e-016 6.36111e-015 3.18055e-015 0.012285 -0.00325392 -0.000676005 -1.59028e-015 2.54444e-014 -3.18055e-015 -7.95139e-016 6.36111e-015 3.18055e-015 -1.76556e-031 3.18055e-015 3.18055e-015 -1.76556e-031 3.18055e-015 3.18055e-015 -15.9834 -41.9771 -20.0324 -172.302 63.1098 170.538 -11.0066 4.3162 0.126556 1.58892e-007 1.24538e-008 -1.49696e-008 18.8987 -51.5134 24.1984 173.056 47.649 -170.295 11.0159 4.11819 1.29601 -1.06309e-007 7.82488e-009 5.15999e-009 
0.0014233 2.29255 6.0598 -0 -89.0022 -0 -0.114931 2.06826 -0.467294 -0.213175 4.13741 -0.931344 -0.213176 4.13743 -0.931344 4.09643 -4.00486 0.896088 4.73022 1.96629 4.04975 2.04803 -9.15796 -3.46424 -9.14219 -19.0595 -38.7212 -20.3601 -31.9966 -38.3304 -48.6104 -24.0219 -27.4217 -1.57703e-008 5.5979e-008 8.94761e-008 1.41933e-007 -5.03811e-007 -8.05285e-007 -1.57703e-008 5.5979e-008 8.94761e-008 -1.57703e-008 5.5979e-008 8.94761e-008 -0.0146073 -8.90489e-005 1.04214e-008 -1.57704e-008 5.59677e-008 8.94833e-008 -1.57703e-008 5.5979e-008 8.94761e-008 -0.0187574 -0.00117752 5.90266e-005 -1.57695e-008 5.59645e-008 8.94854e-008 -1.57703e-008 5.5979e-008 8.94761e-008 -0.0122109 -0.00323481 0.000673805 -1.57675e-008 5.59696e-008 8.94825e-008 -1.57703e-008 5.5979e-008 8.94761e-008 1.41933e-007 -5.03811e-007 -8.05285e-007 -1.57703e-008 5.5979e-008 8.94761e-008 -1.92991 -9.07238 5.15522 9.19781 -18.7958 40.9941 21.5448 -28.7457 41.3156 30.447 -17.9247 20.4496 -2.16254e-007 -5.0207e-007 6.53549e-007 -6.48763e-007 -1.50621e-006 1.96065e-006 -6.48763e-007 -1.50621e-006 1.96065e-006 -2.16254e-007 -5.0207e-007 6.53549e-007 0.0149723 -9.19627e-005 6.28215e-007 -3.44999e-006 -7.26799e-007 1.46519e-006 -2.16254e-007 -5.0207e-007 6.53549e-007 0.0189861 -0.00119434 -5.95186e-005 -6.48714e-007 -1.50589e-006 1.9609e-006 -2.16254e-007 -5.0207e-007 6.53549e-007 0.0122245 -0.00323675 -0.000674213 -6.48681e-007 -1.50601e-006 1.96083e-006 -2.16254e-007 -5.0207e-007 6.53549e-007 -6.48763e-007 -1.50621e-006 1.96065e-006 -6.48763e-007 -1.50621e-006 1.96065e-006 -15.3889 -42.1201 -19.3473 -172.301 63.1115 170.537 -10.5067 4.34464 -0.161731 1.99671e-007 -8.38769e-007 8.46822e-007 18.1771 -51.674 23.4501 173.054 47.651 -170.29 10.5087 4.13265 1.52917 -5.31532e-008 3.91595e-009 2.60449e-009 
